# xmcd
#
# Track frame offsets:
# 150
# 14434
# 31582
# 48883
# 60038
# 75886
# 92018
# 103778
# 119318
# 133845
# 149924
# 166788
# 183134
#
# Disc length: 2475 seconds
#
#
# Revision: 0
# Processed by: cddbd v1.5.1PL2 Copyright (c) Steve Scherf et al.
# Submitted via: FreeRIP 2.944 
#
DISCID=9809a90d
DTITLE=General Store - De la Country dans la Contrée
DYEAR=2005
DGENRE=Chanson
TTITLE0=Deep Ellem Blues
TTITLE1=House Of The Rising Sun
TTITLE2=Auto-Stop Blues
TTITLE3=La Grande Martha
TTITLE4=Mule Skinner Blues
TTITLE5=Le Cow-Boy De San Pedro
TTITLE6=Les Jolies Brunes
TTITLE7=La Manche
TTITLE8=Nine HundredMiles
TTITLE9=Faits d'Automne
TTITLE10=Nine Pound Hammer
TTITLE11=Mama don't Low
TTITLE12=Les Ouaouarons
EXTD=
EXTT0=
EXTT1=
EXTT2=
EXTT3=
EXTT4=
EXTT5=
EXTT6=
EXTT7=
EXTT8=
EXTT9=
EXTT10=
EXTT11=
EXTT12=
PLAYORDER=
